<?xml version="1.0" encoding="iso-8859-1"?>
<!-- Uploaded to: SVG Repo, www.svgrepo.com, Generator: SVG Repo Mixer Tools -->
<svg fill="#000000" height="800px" width="800px" version="1.1" id="Layer_1"
	xmlns="http://www.w3.org/2000/svg"
	xmlns:xlink="http://www.w3.org/1999/xlink" viewBox="0 0 511.999 511.999" xml:space="preserve">
	<g>
		<g>
			<path d="M509.864,330.171c-56.758-98.302-131.559-227.865-135.207-234.185c-2.8-5.023-8.114-8.169-13.911-8.169H330.23V54.253
			c0-8.825-7.24-15.927-15.938-15.927H197.706c-8.774,0-15.927,7.15-15.927,15.927v33.563h-30.527
			c-5.69,0-10.948,3.036-13.793,7.964c-4.135,7.161-78.647,136.229-135.325,234.392c-4.395,7.613-1.787,17.359,5.83,21.758
			l69.42,40.072c7.62,4.397,17.357,1.786,21.755-5.83c1.758-3.046,8.019-13.886,36.185-62.673v134.238
			c0,10.87,10.629,18.476,20.86,15.143l83.886-27.331v-294.3l7.07,4.73c5.22,3.508,12.272,3.642,17.713,0l7.07-4.73v294.299
			l83.897,27.331c10.292,3.353,20.86-4.334,20.86-15.143v-134.22c16.684,28.898-0.357-0.616,36.174,62.655
			c4.398,7.616,14.137,10.227,21.755,5.83l69.42-40.072C511.647,347.533,514.262,337.789,509.864,330.171z M79.519,356.451
			l-41.833-24.147l11.794-20.429l41.833,24.147L79.519,356.451z M200.881,365.133h-26.363c-8.796,0-15.927-7.131-15.927-15.927
			s7.131-15.927,15.927-15.927h26.363c8.796,0,15.927,7.131,15.927,15.927S209.677,365.133,200.881,365.133z M256,113.793
			L227.27,70.18h57.468L256,113.793z M337.481,365.133h-26.363c-8.796,0-15.927-7.131-15.927-15.927s7.131-15.927,15.927-15.927
			h26.363c8.796,0,15.927,7.131,15.927,15.927S346.277,365.133,337.481,365.133z M432.48,356.451l-11.794-20.428l41.833-24.147
			l11.794,20.429L432.48,356.451z"/>
		</g>
	</g>
</svg>